<?xml version="1.0" encoding="UTF-8" standalone="no"?>
<svg viewBox="0 0 60 60" version="1.1" xmlns="http://www.w3.org/2000/svg" xmlns:xlink="http://www.w3.org/1999/xlink">
        <g id="expand" transform="translate(2.000000, 2.000000)">
            <path d="M46.5,22.2 L35.6,22.2 L46.8,11 L44.5,8.7 L33.3,19.9 L33.4,9.1 C33.4,8.2 32.7,7.5 31.8,7.5 C30.9,7.5 30.2,8.2 30.2,9.1 L30.2,23.9 C30.2,24.4 30.4,24.8 30.7,25 C31,25.3 31.4,25.5 31.9,25.5 L46.6,25.5 C47.5,25.5 48.2,24.8 48.2,23.9 C48.1,22.9 47.4,22.2 46.5,22.2 L46.5,22.2 L46.5,22.2 Z M23.8,30.1 L9.1,30.1 C8.2,30.1 7.5,30.8 7.5,31.7 C7.5,32.6 8.2,33.3 9.1,33.3 L20,33.3 L8.8,44.5 L11.1,46.8 L22.2,35.7 L22.2,46.5 C22.2,47.4 22.9,48.1 23.8,48.1 C24.7,48.1 25.4,47.4 25.4,46.5 L25.4,31.7 C25.4,31.2 25.2,30.8 24.9,30.6 C24.7,30.3 24.2,30.1 23.8,30.1 L23.8,30.1 L23.8,30.1 Z" fill="#ffffff"></path>
            <rect id="Rectangle-path" fill="none" stroke="#ffffff" stroke-width="4" x="0" y="0" width="55.5" height="55.5"></rect>
        </g>
</svg>