<?xml version="1.0" encoding="UTF-8" standalone="no"?>
<svg viewBox="0 0 63 57" version="1.1" xmlns="http://www.w3.org/2000/svg" xmlns:xlink="http://www.w3.org/1999/xlink">
    <path fill="#000000" d="M42.3,38.3 C43.9,39.9 54,50.3 54,50.3 L54,50.3 L54.1,50.3 C55.6,51.8 55.6,54.1 54.1,55.6 C52.6,57.1 50.3,57.1 48.8,55.6 C48.8,55.6 48.8,55.6 48.8,55.5 L48.8,55.5 L34.7,41.4 L30.7,37.4 C26.5,41.6 13.8,55.1 13.8,55.1 L13.8,55.1 C13.8,55.1 13.8,55.1 13.8,55.2 C12.3,56.7 10,56.7 8.5,55.2 C7,53.7 7,51.4 8.5,49.9 L8.6,49.9 L8.6,49.9 C8.6,49.9 21.3,36.4 25.5,32.1 L-5.68434189e-14,6.6 L0.9,5.7 C0.9,5.7 5.8,-3.4 34.8,25 C36.3,23 37.4,20.4 37.6,16.8 C37.3,14 38.2,11.1 40.3,9 C40.5,8.8 41.1,8.3 41.1,8.3 L52.9,0 L54.3,1.4 L41.2,13.5 L43,15.3 L55.6,2.7 L57.1,4.2 L44.4,16.9 L45.9,18.4 L58.5,5.8 L59.9,7.2 L47.4,19.7 L49.3,21.6 L61.3,8.6 L62.9,10.2 L53.8,22.7 L53.4,23.1 C51.5,24.7 49.2,25.5 46.8,25.5 L46.8,25.5 C41.6,25.6 38.1,28.2 35.7,31 C35.7,35.6 41.3,38 42.3,38.3 L42.3,38.3 L42.3,38.3 Z"></path>
</svg>