<?xml version="1.0" encoding="UTF-8" standalone="no"?>
<svg viewBox="0 0 60 60" version="1.1" xmlns="http://www.w3.org/2000/svg" xmlns:xlink="http://www.w3.org/1999/xlink">
    <g id="expand" fill="#000000" fill-rule="evenodd">
        <path d="M48.3292383,24.4827586 L37.6167076,24.4827586 L48.6240786,13.4482759 L46.3636364,11.182266 L35.3562654,22.2167488 L35.4545455,11.5763547 C35.4545455,10.6896552 34.7665848,10 33.8820639,10 C32.997543,10 32.3095823,10.6896552 32.3095823,11.5763547 L32.3095823,26.1576355 C32.3095823,26.6502463 32.5061425,27.044335 32.8009828,27.2413793 C33.0958231,27.5369458 33.4889435,27.7339901 33.980344,27.7339901 L48.4275184,27.7339901 C49.3120393,27.7339901 50,27.044335 50,26.1576355 C49.9017199,25.1724138 49.2137592,24.4827586 48.3292383,24.4827586 L48.3292383,24.4827586 L48.3292383,24.4827586 L48.3292383,24.4827586 Z M26.019656,32.2660099 L11.5724816,32.2660099 C10.6879607,32.2660099 10,32.955665 10,33.8423645 C10,34.729064 10.6879607,35.4187192 11.5724816,35.4187192 L22.2850123,35.4187192 L11.2776413,46.453202 L13.5380835,48.7192118 L24.4471744,37.7832512 L24.4471744,48.4236453 C24.4471744,49.3103448 25.1351351,50 26.019656,50 C26.9041769,50 27.5921376,49.3103448 27.5921376,48.4236453 L27.5921376,33.8423645 C27.5921376,33.3497537 27.3955774,32.955665 27.1007371,32.7586207 C26.9041769,32.4630542 26.4127764,32.2660099 26.019656,32.2660099 L26.019656,32.2660099 L26.019656,32.2660099 L26.019656,32.2660099 Z" id="collapse"></path>
        <path d="M0,0 L60,0 L60,60 L0,60 L0,0 Z M4,4 L56,4 L56,56 L4,56 L4,4 Z" id="border"></path>
        <path d="M26.6326531,46.6497462 L15.5102041,46.6497462 L26.9387755,35.2791878 L24.5918367,32.9441624 L13.1632653,44.3147208 L13.2653061,33.3502538 C13.2653061,32.4365482 12.5510204,31.7258883 11.6326531,31.7258883 C10.7142857,31.7258883 10,32.4365482 10,33.3502538 L10,48.3756345 C10,48.8832487 10.2040816,49.2893401 10.5102041,49.4923858 C10.8163265,49.7969543 11.2244898,50 11.7346939,50 L26.7346939,50 C27.6530612,50 28.3673469,49.2893401 28.3673469,48.3756345 C28.2653061,47.3604061 27.5510204,46.6497462 26.6326531,46.6497462 L26.6326531,46.6497462 L26.6326531,46.6497462 Z M48.3673469,10 L33.3673469,10 C32.4489796,10 31.7346939,10.7106599 31.7346939,11.6243655 C31.7346939,12.5380711 32.4489796,13.248731 33.3673469,13.248731 L44.4897959,13.248731 L33.0612245,24.6192893 L35.4081633,26.9543147 L46.7346939,15.6852792 L46.7346939,26.6497462 C46.7346939,27.5634518 47.4489796,28.2741117 48.3673469,28.2741117 C49.2857143,28.2741117 50,27.5634518 50,26.6497462 L50,11.6243655 C50,11.1167513 49.7959184,10.7106599 49.4897959,10.5076142 C49.2857143,10.2030457 48.7755102,10 48.3673469,10 L48.3673469,10 L48.3673469,10 Z"></path>
    </g>
</svg>