<?xml version="1.0" encoding="utf-8"?>
<svg version="1.1" xmlns="http://www.w3.org/2000/svg" xmlns:xlink="http://www.w3.org/1999/xlink" viewBox="0 0 59.5 59.5" xml:space="preserve">
	<path class="st0" d="M26.5,46.2H15.6L26.8,35l-2.3-2.3L13.3,43.9l0.1-10.8c0-0.9-0.7-1.6-1.6-1.6c-0.9,0-1.6,0.7-1.6,1.6v14.8
		c0,0.5,0.2,0.9,0.5,1.1c0.3,0.3,0.7,0.5,1.2,0.5h14.7c0.9,0,1.6-0.7,1.6-1.6C28.1,46.9,27.4,46.2,26.5,46.2L26.5,46.2z M47.8,10.1
		H33.1c-0.9,0-1.6,0.7-1.6,1.6c0,0.9,0.7,1.6,1.6,1.6h10.9L32.8,24.5l2.3,2.3l11.1-11.1l0,10.8c0,0.9,0.7,1.6,1.6,1.6
		c0.9,0,1.6-0.7,1.6-1.6V11.7c0-0.5-0.2-0.9-0.5-1.1C48.7,10.3,48.2,10.1,47.8,10.1L47.8,10.1z M47.8,10.1"/>
	<rect x="2" y="2" class="st1" width="55.5" height="55.5" stroke="#000000" stroke-width="4" stroke-miterlimit="10" fill="none" />
</svg>
