<?xml version="1.0" encoding="UTF-8" standalone="no"?>
<svg viewBox="0 0 74 41" version="1.1" xmlns="http://www.w3.org/2000/svg" xmlns:xlink="http://www.w3.org/1999/xlink">
    <g fill="#000000">
        <path d="M72.4,18.9 C72.3,18.7 68.7,14.3 62.6,9.8 C54.5,3.8 45.6,0.7 37,0.7 C28.4,0.7 19.5,3.9 11.4,9.8 C5.3,14.3 1.8,18.7 1.6,18.9 L0.3,20.5 L1.6,22.1 C1.7,22.3 5.3,26.7 11.4,31.2 C19.5,37.2 28.4,40.3 37,40.3 C45.6,40.3 54.5,37.1 62.6,31.2 C68.7,26.7 72.2,22.3 72.4,22.1 L73.7,20.5 L72.4,18.9 L72.4,18.9 Z M37,34.4 C29.3,34.4 23.1,28.2 23.1,20.5 C23.1,19.3 23.3,18.1 23.5,17 L20.3,16.5 C20,17.8 19.8,19.1 19.8,20.5 C19.8,25.5 21.9,29.9 25.3,33.1 C21,31.5 17.3,29.2 14.5,27.2 C11,24.7 8.5,22.1 7,20.5 C8.5,18.9 11.1,16.4 14.5,13.8 C17.3,11.8 21,9.5 25.3,7.9 L27.4,10.3 C29.9,8 33.2,6.5 36.9,6.5 C44.6,6.5 50.8,12.7 50.8,20.4 C50.9,28.2 44.7,34.4 37,34.4 L37,34.4 Z M59.5,27.2 C56.7,29.2 53,31.5 48.7,33.1 C52.1,30 54.2,25.5 54.2,20.5 C54.2,15.5 52.1,11.1 48.7,7.9 C53,9.5 56.7,11.8 59.5,13.8 C63,16.3 65.5,18.9 67,20.5 C65.5,22.1 62.9,24.6 59.5,27.2 L59.5,27.2 Z"></path>
        <path d="M28.1,17.8 C27.8,18.7 27.7,19.6 27.7,20.5 C27.7,25.6 31.8,29.8 37,29.8 C42.1,29.8 46.3,25.7 46.3,20.5 C46.3,15.3 42.2,11.2 37,11.2 C34.5,11.2 32.3,12.2 30.6,13.8 L35.2,18.9 L28.1,17.8 L28.1,17.8 Z"></path>
    </g>
</svg>