<?xml version="1.0" encoding="UTF-8" standalone="no"?>
<svg width="80px" height="80px" viewBox="0 0 80 80" version="1.1" xmlns="http://www.w3.org/2000/svg" xmlns:xlink="http://www.w3.org/1999/xlink" xmlns:sketch="http://www.bohemiancoding.com/sketch/ns">
    <g fill="#000000">
        <rect x="38" y="0" width="4" height="20"></rect>
        <path d="M58.2679492,4.35898385 L61.7320508,6.35898385 L51.7320508,23.6794919 L48.2679492,21.6794919 L58.2679492,4.35898385 Z" opacity="0.9"></path>
        <path d="M73.6410162,18.2679492 L75.6410162,21.7320508 L58.3205081,31.7320508 L56.3205081,28.2679492 L73.6410162,18.2679492 Z" opacity="0.8"></path>
        <path d="M80,38 L80,42 L60,42 L60,38 L80,38 Z" opacity="0.7"></path>
        <path d="M75.6410162,58.2679492 L73.6410162,61.7320508 L56.3205081,51.7320508 L58.3205081,48.2679492 L75.6410162,58.2679492 Z" opacity="0.6"></path>
        <path d="M61.7320508,73.6410162 L58.2679492,75.6410162 L48.2679492,58.3205081 L51.7320508,56.3205081 L61.7320508,73.6410162 Z" opacity="0.5"></path>
        <rect opacity="0.4" x="38" y="60" width="4" height="20"></rect>
        <path d="M21.7320508,75.6410162 L18.2679492,73.6410162 L28.2679492,56.3205081 L31.7320508,58.3205081 L21.7320508,75.6410162 Z" opacity="0.3"></path>
        <path d="M6.35898385,61.7320508 L4.35898385,58.2679492 L21.6794919,48.2679492 L23.6794919,51.7320508 L6.35898385,61.7320508 Z" opacity="0.2"></path>
        <path d="M1.77635684e-15,42 L1.04156876e-15,38 L20,38 L20,42 L1.77635684e-15,42 Z" opacity="0.15"></path>
        <path d="M4.35898385,21.7320508 L6.35898385,18.2679492 L23.6794919,28.2679492 L21.6794919,31.7320508 L4.35898385,21.7320508 Z" opacity="0.1"></path>
        <path d="M18.2679492,6.35898385 L21.7320508,4.35898385 L31.7320508,21.6794919 L28.2679492,23.6794919 L18.2679492,6.35898385 Z" opacity="0.05"></path>
    </g>
</svg>