<?xml version="1.0" encoding="UTF-8" standalone="no"?>
<svg viewBox="0 0 46 75" version="1.1" xmlns="http://www.w3.org/2000/svg" xmlns:xlink="http://www.w3.org/1999/xlink">
    <g fill="#000000">
        <path d="M44.2,37.9 L35.2,32.7 C34.6,32.4 33.9,31.5 33.7,30.8 L30.9,21.3 C30.8,21.1 30.7,20.8 30.6,20.7 C30.2,20 29.4,19.4 28.5,19.4 L16.5,19.9 C16,19.9 15.5,20.1 15.1,20.5 C15,20.6 14.9,20.6 14.9,20.7 L6.8,27 C5.9,27.7 5.3,29.2 5.6,30.3 L8.8,44.1 C9.1,45.3 10.2,46.1 11.4,46.1 L11.6,46.1 L12.8,46 C13.4,45.9 14,45.6 14.4,45.1 C14.8,44.6 14.9,43.9 14.8,43.3 L12.5,32.6 C12.4,32 12.7,31.2 13.1,30.9 L14.6,29.8 L15.3,47 C15.3,47 15.3,47 15.3,47.1 L12,54.4 C11.6,55.3 10.5,56.6 9.7,57.2 L2,62.8 C0.7,63.7 0.3,65.5 0.9,66.9 L2,69.2 C2.4,70.1 3.3,70.7 4.2,70.7 C4.7,70.7 5.3,70.5 5.7,70.2 L15.9,62.6 C16.9,61.8 18.2,60.4 18.8,59.2 L23.9,49.4 C23.9,49.3 24,49.2 24,49.2 L24.4,49.2 L32.8,72.2 C33.4,73.8 35,74.9 36.7,74.9 C37.1,74.9 37.5,74.8 37.9,74.7 L38.4,74.5 C39.4,74.2 40.2,73.5 40.7,72.5 C41.2,71.6 41.2,70.5 40.9,69.5 L32,45 C32,44.9 31.9,44.8 31.9,44.7 L31.6,38.2 L41.3,43.2 C41.6,43.4 42,43.5 42.4,43.5 C43.3,43.5 44.1,43 44.5,42.2 L45.1,41.1 C45.7,40 45.3,38.6 44.2,37.9 L44.2,37.9 L44.2,37.9 Z"></path>
        <path d="M21.2,17.7 L21.6,17.7 C23.9,17.6 26,16.6 27.6,14.9 C29.2,13.2 30,11 29.9,8.7 C29.7,3.9 25.7,0.2 20.9,0.4 C18.6,0.5 16.5,1.5 14.9,3.2 C13.3,4.9 12.5,7.1 12.6,9.4 C12.7,14 16.5,17.7 21.2,17.7 L21.2,17.7 L21.2,17.7 Z"></path>
    </g>
</svg>